<?xml version="1.0" encoding="UTF-8"?><svg id="Layer_1" xmlns="http://www.w3.org/2000/svg" xmlns:xlink="http://www.w3.org/1999/xlink" viewBox="0 0 188.32 174.94"><defs><style>.cls-1{fill:#231f20;}.cls-2{fill:url(#linear-gradient);}</style><linearGradient id="linear-gradient" x1=".93" y1="152.65" x2="185.92" y2="152.65" gradientUnits="userSpaceOnUse"><stop offset="0" stop-color="#7fbbe6"/><stop offset=".09" stop-color="#8bc2e8" stop-opacity=".92"/><stop offset=".37" stop-color="#b0d7f1" stop-opacity=".7"/><stop offset=".62" stop-color="#cbe7f7" stop-opacity=".54"/><stop offset=".82" stop-color="#dcf0fa" stop-opacity=".44"/><stop offset=".95" stop-color="#e2f4fc" stop-opacity=".4"/><stop offset=".98" stop-color="#f6fbfe" stop-opacity=".47"/><stop offset="1" stop-color="#fff" stop-opacity=".5"/></linearGradient></defs><path class="cls-1" d="M166.58,40.28l-23.3,61.59-23.3-61.59h-21.73l34.7,83.05-1.41,3.85c-.43,1.23-.91,2.39-1.43,3.45-1.4,2.91-3.06,5.23-4.97,6.98-2.36,2.16-5.76,3.34-10.17,3.55,9.82,0,19.67.6,29.52,1.66,1.88-2.97,3.57-6.26,5.1-9.85l.3-.71,38.44-91.99h-21.74Z"/><path class="cls-1" d="M144.49,142.83c-.13.22-.27.45-.42.66-2.06,3.14-4.42,5.83-7.11,8.06-2.69,2.21-5.81,3.94-9.37,5.17-3.57,1.23-7.74,1.84-12.52,1.84-3.5,0-6.38-.35-8.59-1.05-2.23-.71-3.99-1.35-5.27-1.93l.15-14,.03-2.31c1.28.6,3.06,1.06,5.35,1.41,1.94.3,3.87.47,5.78.5.33.02.65.02.96.02.4,0,.8,0,1.18-.03h.3c9.82,0,19.67.6,29.52,1.66Z"/><path class="cls-1" d="M71.94,2.27v120.18h20.11V2.27h-20.11Z"/><path class="cls-1" d="M39.66,21.15c-3.03,2.33-4.56,6.27-4.56,11.87l.03,7.5h22.86v16.95h-22.83l.12,64.97H15.21l.24-64.97H0v-16.95h15.52l.03-7.87c0-10.8,2.85-18.97,8.57-24.45C29.81,2.75,37.55,0,47.34,0c1.84,0,3.73.12,5.66.37,1.93.21,3.64.58,5.14,1.04v17.11c-1.04-.21-2.14-.43-3.31-.61s-2.26-.24-3.31-.24c-4.9,0-8.88,1.16-11.87,3.49Z"/><path class="cls-1" d="M118.68,23.67c-2.16-2.1-3.23-4.77-3.23-8.03s1.07-5.94,3.23-8.03c2.15-2.1,4.86-3.14,8.12-3.14s5.94,1.05,8.03,3.14c2.1,2.1,3.14,4.78,3.14,8.03s-1.05,5.94-3.14,8.03c-2.1,2.1-4.77,3.14-8.03,3.14s-5.97-1.05-8.12-3.14Z"/><path class="cls-1" d="M149.41,23.67c-2.04-2.1-3.06-4.77-3.06-8.03s1.02-5.94,3.06-8.03c2.04-2.1,4.68-3.14,7.95-3.14s5.97,1.05,8.12,3.14c2.15,2.1,3.23,4.78,3.23,8.03s-1.08,5.94-3.23,8.03c-2.15,2.1-4.86,3.14-8.12,3.14s-5.91-1.05-7.95-3.14Z"/><path class="cls-2" d="M180.81,148.68c-12.09-2.51-24.2-4.53-36.33-5.85-9.85-1.06-19.7-1.66-29.52-1.66h-.3c-.71,0-1.43,0-2.14.02-1.91-.03-3.84-.2-5.78-.5-2.29-.35-4.07-.81-5.35-1.41l-.03,2.31c-.25,0-.5.02-.75.03-4.93.3-9.88.76-14.78,1.45l-8.29,1.3c-5.75.96-11.49,2.24-17.21,3.79l-9.05,2.71c-2.72.86-8.94,3.21-8.94,3.21-13.07,4.98-26.01,11.68-38.8,20.31-4.72,3.22-2.16-8.17.71-10.13,16.03-10.86,32.34-18.67,48.84-24.04l8.14-2.49c13.37-3.69,26.84-5.86,40.4-6.78,2.61-.2,5.25-.35,7.89-.43,6.84-.23,13.72-.18,20.58.13,6.59.32,13.19.86,19.78,1.63,11.63,1.31,23.25,3.29,34.87,5.71,3.64.75-2.18,11.1-3.94,10.7Z"/></svg>