<?xml version="1.0" encoding="UTF-8"?><svg id="Layer_1" xmlns="http://www.w3.org/2000/svg" viewBox="0 0 207.3 57.43"><defs><style>.cls-1{fill:#231f20;}.cls-2{fill:#fff;}</style></defs><path class="cls-1" d="M25.43.74v39.27h6.57V.74h-6.57Z"/><path class="cls-1" d="M14.88,6.91c-.99.76-1.49,2.05-1.49,3.88v2.45h7.48v5.54h-7.46l.04,21.23h-6.56l.08-21.23H1.92v-5.54h5.07v-2.57c.01-3.53.94-6.2,2.81-7.99,1.86-1.78,4.39-2.68,7.59-2.68.6,0,1.22.04,1.85.12.63.07,1.19.19,1.68.34v5.59c-.34-.07-.7-.14-1.08-.2s-.74-.08-1.08-.08c-1.6,0-2.9.38-3.88,1.14Z"/><path class="cls-1" d="M63.51,13.24l-11.97,28.62-.65,1.57c-.15.36-.31.72-.48,1.06-.4.85-.84,1.63-1.31,2.36-.67,1.03-1.44,1.91-2.31,2.63-.88.72-1.9,1.28-3.06,1.68-1.16.4-2.52.6-4.08.6-1.14,0-2.07-.11-2.79-.34-.73-.23-1.3-.44-1.72-.63l.06-5.01c.22-.03.43-.06.65-.07.31.09.67.17,1.09.23.74.11,1.48.17,2.2.17,1.57,0,2.78-.34,3.63-1.04.05-.04.11-.08.16-.13.69-.62,1.27-1.47,1.74-2.54.13-.27.24-.55.35-.85l.45-1.26-11.3-27.05h7.08l7.59,20.05,7.59-20.05h7.08Z"/><path class="cls-1" d="M35.84,45.71c-.22.01-.43.04-.65.07v-.3c.18.08.4.16.65.23Z"/><path class="cls-1" d="M40.7,7.74c-.7-.68-1.06-1.56-1.06-2.62s.35-1.94,1.06-2.62c.7-.68,1.59-1.03,2.65-1.03s1.94.34,2.62,1.03,1.03,1.56,1.03,2.62-.34,1.94-1.03,2.62c-.68.69-1.56,1.03-2.62,1.03s-1.95-.34-2.65-1.03Z"/><path class="cls-1" d="M50.75,7.74c-.67-.68-1-1.56-1-2.62s.33-1.94,1-2.62c.67-.68,1.53-1.03,2.6-1.03s1.95.34,2.65,1.03c.7.69,1.06,1.56,1.06,2.62s-.35,1.94-1.06,2.62c-.7.69-1.59,1.03-2.65,1.03s-1.93-.34-2.6-1.03Z"/><path class="cls-1" d="M91.35,43.29c-.03.09-.06.17-.09.25-.67,1.75-1.61,3.25-2.83,4.48-1.22,1.24-2.71,2.18-4.48,2.83-1.77.64-3.74.97-5.9.97-1.79,0-3.46-.23-5-.69-1.54-.45-2.9-1.12-4.08-1.99-1.18-.88-2.17-1.94-2.96-3.17-.45-.7-.83-1.45-1.13-2.25-.24-.62-.44-1.27-.59-1.95h6.57c.23.64.55,1.22.97,1.72.47.57,1.06,1.06,1.77,1.45,1.33.74,2.81,1.11,4.45,1.11,2.24,0,4.08-.67,5.5-2.02.24-.23.46-.47.66-.74,2.38-.01,4.76-.01,7.14,0Z"/><path class="cls-1" d="M86.55,13.24l-.74,3.43c-.92-1.18-2.13-2.14-3.65-2.89-1.53-.74-3.39-1.11-5.6-1.11-1.86,0-3.6.33-5.22,1-1.62.67-3.02,1.61-4.22,2.82-1.2,1.22-2.13,2.67-2.8,4.34-.66,1.68-1,3.52-1,5.54s.34,3.88,1,5.59c.67,1.71,1.6,3.19,2.8,4.42,1.2,1.24,2.6,2.21,4.22,2.91,1.62.71,3.38,1.06,5.28,1.06,2.21,0,4.04-.36,5.51-1.09,1.46-.72,2.65-1.63,3.56-2.74v1.72c0,.85-.08,1.64-.25,2.36-.23,1.04-.64,1.94-1.23,2.69,2.38-.01,4.76-.01,7.14,0,.3-.85.53-1.75.68-2.71.15-.94.23-1.93.23-2.97V13.24h-5.71ZM85.01,29.68c-.38.99-.93,1.85-1.66,2.59-.72.75-1.56,1.34-2.51,1.8-.95.46-2.01.69-3.19.69s-2.26-.23-3.23-.69c-.97-.46-1.8-1.05-2.48-1.8-.68-.74-1.22-1.6-1.6-2.59s-.57-2.08-.57-3.26c0-1.1.19-2.15.57-3.13.38-.99.92-1.85,1.6-2.57.68-.72,1.51-1.3,2.48-1.71.97-.42,2.05-.63,3.23-.63s2.19.21,3.16.63c.97.41,1.82.99,2.54,1.71.73.72,1.28,1.58,1.66,2.57.38.98.57,2.03.57,3.13,0,1.18-.19,2.27-.57,3.26Z"/><path class="cls-1" d="M118.74,13.24l-.4,3.36c-.95-1.21-2.17-2.17-3.65-2.88-1.49-.7-3.33-1.05-5.54-1.05-1.86,0-3.6.33-5.22,1-1.62.66-3.02,1.61-4.2,2.85-1.18,1.24-2.1,2.7-2.76,4.39-.67,1.7-1,3.55-1,5.57s.33,3.94,1,5.68c.66,1.73,1.58,3.21,2.76,4.45,1.18,1.23,2.58,2.2,4.2,2.91,1.62.7,3.36,1.05,5.22,1.05,2.21,0,4.05-.36,5.54-1.08,1.48-.72,2.7-1.67,3.65-2.85l.51,3.36h5.88V13.24h-5.99ZM117.65,29.76c-.38,1.01-.92,1.88-1.63,2.63-.7.74-1.55,1.33-2.54,1.77-.99.43-2.07.65-3.25.65s-2.24-.22-3.19-.65c-.96-.44-1.77-1.03-2.46-1.77-.68-.75-1.22-1.62-1.6-2.63s-.57-2.08-.57-3.22.19-2.21.57-3.2c.38-.99.92-1.84,1.6-2.57.69-.72,1.5-1.29,2.46-1.71.95-.42,2.01-.63,3.19-.63s2.26.21,3.25.63,1.84.99,2.54,1.71c.71.73,1.25,1.58,1.63,2.57.38.99.57,2.06.57,3.2s-.19,2.21-.57,3.22Z"/><path class="cls-1" d="M130.44,40.01V13.24h5.76l.57,4.79c.68-1.67,1.75-2.99,3.2-3.94,1.45-.95,3.21-1.43,5.31-1.43.38,0,.73.02,1.06.06.32.04.58.1.77.17v5.94c-.11-.04-.31-.08-.6-.11-.29-.04-.56-.06-.83-.06-1.29,0-2.47.21-3.54.63-1.07.42-1.98,1.02-2.74,1.8-.76.78-1.35,1.71-1.77,2.8-.42,1.08-.63,2.31-.63,3.68v12.44h-6.56Z"/><path class="cls-1" d="M169.53.74v15.92c-.96-1.18-2.15-2.14-3.6-2.88-1.45-.74-3.27-1.11-5.48-1.11-1.9,0-3.65.33-5.25,1-1.6.66-2.99,1.61-4.16,2.85-1.18,1.24-2.11,2.7-2.77,4.39-.67,1.7-1,3.57-1,5.63s.33,3.88,1,5.62c.66,1.73,1.59,3.21,2.77,4.45,1.17,1.23,2.56,2.2,4.16,2.91,1.6.7,3.35,1.05,5.25,1.05,2.17,0,4.01-.37,5.51-1.11,1.5-.74,2.73-1.7,3.68-2.88l.23,3.42h6.22V.74h-6.56ZM168.93,29.76c-.4,1.01-.96,1.88-1.66,2.62-.7.75-1.54,1.34-2.51,1.77-.97.44-2.05.66-3.22.66s-2.26-.22-3.23-.66c-.97-.43-1.8-1.02-2.48-1.77-.69-.74-1.22-1.61-1.6-2.62s-.57-2.08-.57-3.22.19-2.21.57-3.2c.38-.99.91-1.85,1.6-2.57.68-.72,1.51-1.29,2.48-1.71.97-.42,2.05-.63,3.23-.63s2.2.21,3.19.63,1.84.99,2.54,1.71c.7.72,1.26,1.58,1.66,2.57.4.99.6,2.05.6,3.2s-.2,2.21-.6,3.22Z"/><path class="cls-1" d="M206.33,20.69c-.65-1.66-1.57-3.08-2.77-4.28-1.2-1.2-2.63-2.12-4.31-2.77-1.67-.65-3.54-.97-5.59-.97-2.24,0-4.22.39-5.93,1.17-1.72.78-3.15,1.82-4.31,3.11-1.16,1.29-2.05,2.78-2.66,4.45-.61,1.68-.91,3.43-.91,5.25s.29,3.52.88,5.2c.59,1.67,1.46,3.15,2.6,4.45,1.14,1.29,2.57,2.33,4.28,3.11,1.71.78,3.67,1.17,5.88,1.17,3.27,0,6.1-.81,8.47-2.43,2.38-1.62,4.03-3.85,4.94-6.7l-6.68.05c-.64,1.11-1.49,1.94-2.54,2.51-1.04.57-2.29.86-3.73.86-1.3,0-2.42-.21-3.37-.63s-1.75-1-2.4-1.74c-.65-.74-1.13-1.62-1.45-2.65-.16-.49-.28-1.01-.36-1.54h20.76c.07-.35.12-.69.14-1.03.02-.34.03-.72.03-1.14,0-1.98-.32-3.8-.97-5.45Z"/><path class="cls-2" d="M186.52,23.97c.05-.24.11-.48.18-.71.3-1.01.76-1.9,1.37-2.66.61-.76,1.38-1.36,2.31-1.79.93-.44,2.01-.66,3.22-.66.84,0,1.67.13,2.49.4.81.27,1.56.65,2.22,1.14.67.5,1.22,1.1,1.66,1.83.43.72.71,1.54.82,2.45h-14.27Z"/><path class="cls-1" d="M3.08,47.93c13.76-2.57,27.64-4.36,41.58-5.53-.47,1.07-1.05,1.92-1.74,2.54-.05.05-.11.09-.16.13-2.31.19-4.62.4-6.92.64-.22.01-.43.04-.65.07-11.08,1.11-22.11,2.66-33.07,4.7-4.05.76-1.5-2.09.96-2.55Z"/><path class="cls-1" d="M150.76,45.97c-19.69-1.52-39.55-2.56-59.41-2.68-2.38-.01-4.76-.01-7.14,0-4.13.02-8.26.08-12.38.2-.42-.5-.74-1.08-.97-1.72h-6.57c.15.68.35,1.33.59,1.95-4.83.18-9.66.44-14.48.77.17-.34.33-.7.48-1.06l.65-1.57c11.28-.78,22.59-1.18,33.91-1.26,2.19-.02,4.39-.03,6.59-.02,20.87.06,41.73,1.13,62.41,2.73,3.01.23-2.22,2.78-3.68,2.66Z"/><path class="cls-1" d="M111.41,49.46c-.12-.32-.29-.57-.52-.75-.23-.18-.5-.31-.83-.38-.32-.07-.69-.11-1.09-.11-1.79,0-2.72.67-2.79,2h1.15c.03-.73.56-1.1,1.57-1.1.39,0,.69.04.9.12.2.07.36.18.46.33.09.15.15.33.17.54.02.22.02.47.02.75h-.56c-2.59,0-3.89.75-3.89,2.25,0,.28.06.53.17.76s.26.42.46.59c.2.16.43.28.7.37.26.09.55.14.86.14.9,0,1.66-.27,2.26-.81v.66h1.14v-4.16c0-.49-.06-.89-.18-1.2ZM110.45,53.12c-.1.15-.22.28-.36.4-.15.12-.3.22-.47.3-.17.08-.35.14-.54.18-.18.05-.37.07-.56.07-.2,0-.39-.03-.55-.07-.17-.05-.31-.11-.43-.2-.12-.08-.21-.19-.28-.31-.06-.13-.09-.27-.09-.44,0-.9.83-1.35,2.49-1.35h.79v1.42Z"/><path class="cls-1" d="M116.95,48.38l-1.71,5.03-1.7-5.03h-1.23l2.42,6.44h1.03l2.43-6.44h-1.24Z"/><path class="cls-1" d="M118.9,48.38v6.44h1.14v-6.44h-1.14ZM118.9,45.92v1.24h1.14v-1.24h-1.14Z"/><path class="cls-1" d="M126.47,49.46c-.12-.32-.29-.57-.52-.75-.23-.18-.5-.31-.83-.38-.32-.07-.68-.11-1.09-.11-1.79,0-2.72.67-2.79,2h1.15c.03-.73.56-1.1,1.57-1.1.39,0,.69.04.9.12.21.07.36.18.46.33.09.15.15.33.17.54.02.22.03.47.03.75h-.57c-2.59,0-3.89.75-3.89,2.25,0,.28.06.53.17.76s.27.42.46.59c.2.16.43.28.7.37.26.09.55.14.86.14.9,0,1.66-.27,2.27-.81v.66h1.13v-4.16c0-.49-.06-.89-.18-1.2ZM125.52,53.12c-.11.15-.23.28-.37.4-.15.12-.3.22-.47.3-.17.08-.35.14-.54.18-.18.05-.37.07-.56.07-.2,0-.39-.03-.55-.07-.17-.05-.31-.11-.43-.2-.12-.08-.21-.19-.27-.31-.07-.13-.1-.27-.1-.44,0-.9.83-1.35,2.49-1.35h.8v1.42Z"/><path class="cls-1" d="M130.27,54c-.1,0-.19.01-.3.01-.09,0-.18-.01-.26-.04-.08-.02-.14-.07-.2-.14-.05-.07-.09-.18-.12-.31-.03-.14-.04-.31-.04-.54v-3.71h1.05v-.89h-1.05v-1.6h-1.15v1.6h-.79v.89h.79v3.66c0,.33.01.62.04.86.04.25.1.46.21.62.11.17.26.29.46.37.2.09.47.13.81.13.15,0,.29,0,.43-.02s.27-.04.4-.07v-.86c-.09.02-.18.03-.28.04Z"/><path class="cls-1" d="M131.2,48.38v6.44h1.14v-6.44h-1.14ZM131.2,45.92v1.24h1.14v-1.24h-1.14Z"/><path class="cls-1" d="M139.15,50.17c-.14-.42-.34-.77-.6-1.06-.27-.29-.59-.51-.96-.66-.37-.15-.79-.23-1.25-.23s-.87.08-1.24.23c-.37.15-.69.37-.95.66-.27.29-.47.64-.62,1.06-.14.42-.21.89-.21,1.42s.07,1.02.22,1.44c.14.42.35.78.62,1.06.26.29.58.51.95.66.37.14.78.22,1.23.22s.87-.08,1.24-.23c.37-.15.69-.37.96-.66.26-.28.46-.64.61-1.06.14-.41.21-.89.21-1.43s-.07-1-.21-1.42ZM138.04,52.68c-.09.31-.22.56-.38.77-.16.2-.35.36-.58.46-.22.1-.47.16-.74.16s-.52-.06-.75-.16c-.22-.1-.41-.26-.58-.46-.16-.21-.28-.46-.37-.77-.09-.32-.14-.68-.14-1.09s.05-.77.14-1.07c.09-.31.21-.57.37-.78.17-.2.36-.36.58-.46.23-.11.48-.16.75-.16s.52.05.74.16c.23.1.42.26.58.46.16.21.29.47.38.78.09.3.13.66.13,1.07s-.04.77-.13,1.09Z"/><path class="cls-1" d="M143.41,48.22c-.36,0-.7.08-1.02.24-.32.16-.62.41-.91.74v-.82h-1.13v6.44h1.13v-4.62c.59-.68,1.18-1.03,1.76-1.03.21,0,.39.03.54.09.15.05.28.14.38.26.09.12.16.27.21.46.04.18.07.41.07.68v4.16h1.15v-4.22c0-1.59-.73-2.38-2.18-2.38Z"/><path class="cls-1" d="M156.55,53.41c-.08.14-.19.27-.31.36-.13.1-.28.17-.45.22s-.34.08-.52.08c-.28,0-.52-.06-.75-.16-.22-.1-.42-.26-.58-.46-.16-.21-.29-.46-.38-.77-.09-.32-.13-.68-.13-1.09s.04-.77.13-1.07c.09-.31.22-.57.38-.78.16-.2.36-.36.58-.46.23-.11.47-.16.75-.16.19,0,.37.03.54.08.17.05.32.12.44.22.13.1.23.23.3.38.08.14.12.32.13.51h1.18c-.04-.34-.14-.64-.29-.9-.14-.26-.33-.48-.56-.65-.22-.18-.48-.32-.78-.41-.3-.09-.62-.13-.96-.13-.46,0-.87.08-1.24.23-.37.15-.69.37-.96.66-.26.29-.46.64-.61,1.06-.14.42-.22.89-.22,1.42s.08,1.02.22,1.44c.15.42.36.78.62,1.06.27.29.59.51.96.66.37.14.78.22,1.23.22.34,0,.66-.04.95-.13.3-.09.56-.22.79-.4.23-.17.42-.39.56-.64.15-.26.25-.56.29-.91h-1.18c-.01.2-.05.37-.13.52Z"/><path class="cls-1" d="M164,50.17c-.14-.42-.34-.77-.61-1.06-.26-.29-.58-.51-.95-.66-.38-.15-.79-.23-1.25-.23s-.88.08-1.25.23c-.37.15-.69.37-.95.66-.26.29-.47.64-.61,1.06-.15.42-.22.89-.22,1.42s.08,1.02.22,1.44c.15.42.35.78.62,1.06.27.29.58.51.95.66.38.14.79.22,1.24.22s.87-.08,1.24-.23c.37-.15.69-.37.95-.66.26-.28.47-.64.61-1.06.15-.41.22-.89.22-1.43s-.07-1-.21-1.42ZM162.88,52.68c-.09.31-.21.56-.37.77-.17.2-.36.36-.58.46-.23.1-.48.16-.74.16-.28,0-.53-.06-.75-.16-.23-.1-.42-.26-.58-.46-.16-.21-.29-.46-.38-.77-.09-.32-.13-.68-.13-1.09s.04-.77.13-1.07c.09-.31.22-.57.38-.78.16-.2.35-.36.58-.46.22-.11.47-.16.75-.16.26,0,.51.05.74.16.22.1.41.26.58.46.16.21.28.47.37.78.09.3.14.66.14,1.07s-.05.77-.14,1.09Z"/><path class="cls-1" d="M168.25,48.22c-.35,0-.69.08-1.01.24-.32.16-.63.41-.91.74v-.82h-1.14v6.44h1.14v-4.62c.59-.68,1.17-1.03,1.76-1.03.21,0,.39.03.54.09.15.05.27.14.37.26.1.12.17.27.21.46.05.18.07.41.07.68v4.16h1.16v-4.22c0-1.59-.73-2.38-2.19-2.38Z"/><path class="cls-1" d="M176.55,52.16c-.1-.21-.24-.39-.43-.53s-.43-.26-.72-.36c-.29-.11-.63-.21-1.02-.3-.4-.1-.72-.18-.95-.25-.24-.08-.41-.14-.53-.21s-.2-.14-.23-.22c-.03-.08-.04-.19-.04-.31,0-.14.03-.26.1-.37s.16-.2.28-.27c.12-.07.26-.13.42-.16.17-.04.35-.06.54-.06.87,0,1.33.3,1.37.9h1.13c-.03-1.2-.89-1.8-2.58-1.8-.37,0-.7.05-.99.14-.3.09-.55.22-.76.39-.21.17-.37.37-.48.59-.11.23-.17.48-.17.74,0,.3.04.55.13.75.08.2.21.36.39.5.18.13.41.25.68.34.28.09.61.19.99.28.39.1.71.19.95.26.24.07.43.14.57.21.13.08.22.16.27.26.05.09.07.21.07.37,0,.15-.03.28-.09.4-.06.13-.15.23-.28.33-.12.09-.27.16-.45.21s-.39.08-.63.08c-1.07,0-1.6-.39-1.6-1.18h-1.16c.1,1.39,1.02,2.08,2.77,2.08.4,0,.75-.05,1.07-.16.32-.1.59-.24.82-.42.22-.19.39-.4.52-.65.12-.25.18-.52.18-.81,0-.31-.05-.57-.14-.77Z"/><path class="cls-1" d="M181.81,48.38v4.6c-.54.69-1.13,1.03-1.77,1.03-.21,0-.39-.02-.54-.08-.15-.05-.27-.14-.37-.26-.1-.11-.17-.27-.21-.45-.05-.19-.07-.42-.07-.69v-4.15h-1.16v4.21c0,1.59.73,2.38,2.18,2.38.72,0,1.36-.32,1.94-.97v.82h1.13v-6.44h-1.13Z"/><path class="cls-1" d="M184.34,45.92v8.9h1.13v-8.9h-1.13Z"/><path class="cls-1" d="M189.09,54c-.1,0-.19.01-.3.01-.09,0-.18-.01-.26-.04-.08-.02-.14-.07-.2-.14-.05-.07-.09-.18-.12-.31-.03-.14-.04-.31-.04-.54v-3.71h1.05v-.89h-1.05v-1.6h-1.15v1.6h-.79v.89h.79v3.66c0,.33.02.62.05.86.03.25.1.46.2.62.11.17.26.29.46.37.2.09.47.13.81.13.15,0,.29,0,.43-.02s.27-.04.4-.07v-.86c-.09.02-.18.03-.28.04Z"/><path class="cls-1" d="M190.02,48.38v6.44h1.14v-6.44h-1.14ZM190.02,45.92v1.24h1.14v-1.24h-1.14Z"/><path class="cls-1" d="M195.61,48.22c-.35,0-.69.08-1.01.24-.32.16-.62.41-.91.74v-.82h-1.14v6.44h1.14v-4.62c.59-.68,1.18-1.03,1.76-1.03.21,0,.39.03.54.09.15.05.28.14.37.26.1.12.17.27.22.46.04.18.06.41.06.68v4.16h1.16v-4.22c0-1.59-.73-2.38-2.19-2.38Z"/><path class="cls-1" d="M203.25,48.38v.5c-.24-.22-.51-.39-.81-.5-.29-.11-.61-.16-.97-.16-.38,0-.74.08-1.07.24-.33.15-.62.38-.87.68-.24.29-.43.65-.57,1.07-.14.43-.21.91-.21,1.44,0,.5.06.95.18,1.36.11.41.28.76.5,1.05.23.29.51.51.84.67.33.16.71.24,1.14.24.71,0,1.33-.31,1.84-.92v.32c0,.42-.03.77-.11,1.05-.07.28-.18.5-.33.67-.14.16-.32.28-.53.34-.21.07-.45.1-.73.1-.93,0-1.4-.35-1.4-1.06h-1.19c0,.31.06.58.18.82.13.25.3.45.53.62.23.17.5.3.83.39.32.09.68.13,1.09.13,1.87,0,2.8-1.04,2.8-3.11v-5.94h-1.14ZM203.25,52.96c-.27.38-.55.66-.84.84-.28.18-.59.27-.91.27-.49,0-.88-.21-1.15-.61-.28-.41-.41-1.01-.41-1.81,0-.43.03-.79.11-1.11.08-.32.18-.58.33-.79.14-.21.3-.36.5-.47.2-.11.42-.16.67-.16.62,0,1.19.26,1.7.79v3.05Z"/></svg>