<?xml version="1.0" encoding="UTF-8"?><svg id="Layer_1" xmlns="http://www.w3.org/2000/svg" xmlns:xlink="http://www.w3.org/1999/xlink" viewBox="0 0 207.3 55.43"><defs><style>.cls-1{fill:url(#linear-gradient-2);}.cls-2{fill:#231f20;}.cls-3{fill:#fff;}.cls-4{fill:url(#linear-gradient-4);}.cls-5{fill:url(#linear-gradient-3);}.cls-6{fill:url(#linear-gradient-5);}.cls-7{fill:url(#linear-gradient);}</style><linearGradient id="linear-gradient" x1="69.81" y1="25.55" x2="85.52" y2="27.59" gradientUnits="userSpaceOnUse"><stop offset="0" stop-color="#72b5e4"/><stop offset=".29" stop-color="#96cbed"/><stop offset=".57" stop-color="#b4ddf4"/><stop offset=".82" stop-color="#c5e8f8"/><stop offset="1" stop-color="#ccecfa"/></linearGradient><linearGradient id="linear-gradient-2" x1="102.62" y1="25.36" x2="118.22" y2="27.93" gradientUnits="userSpaceOnUse"><stop offset=".3" stop-color="#c4e9fa"/><stop offset=".38" stop-color="#caebfa"/><stop offset=".57" stop-color="#d3eefb"/><stop offset=".83" stop-color="#d7effc"/></linearGradient><linearGradient id="linear-gradient-3" x1="154.16" y1="25.74" x2="169.91" y2="27.63" gradientUnits="userSpaceOnUse"><stop offset="0" stop-color="#d7effc"/><stop offset=".58" stop-color="#f1f9fd"/><stop offset="1" stop-color="#fff"/></linearGradient><linearGradient id="linear-gradient-4" x1="0" y1="46.5" x2="44.82" y2="46.5" xlink:href="#linear-gradient"/><linearGradient id="linear-gradient-5" x1="50.4" y1="43.28" x2="155.72" y2="43.28" gradientUnits="userSpaceOnUse"><stop offset="0" stop-color="#7fbbe6"/><stop offset=".02" stop-color="#83bde6" stop-opacity=".97"/><stop offset=".25" stop-color="#abd4ef" stop-opacity=".73"/><stop offset=".44" stop-color="#c9e5f6" stop-opacity=".55"/><stop offset=".6" stop-color="#dbf0fa" stop-opacity=".44"/><stop offset=".7" stop-color="#e2f4fc" stop-opacity=".4"/><stop offset=".88" stop-color="#f6fbfe" stop-opacity=".47"/><stop offset="1" stop-color="#fff" stop-opacity=".5"/></linearGradient></defs><path class="cls-2" d="M25.43.74v39.27h6.57V.74h-6.57Z"/><path class="cls-2" d="M14.88,6.91c-.99.76-1.49,2.05-1.49,3.88v2.45h7.48v5.54h-7.46l.04,21.23h-6.56l.08-21.23H1.92v-5.54h5.07v-2.57c.01-3.53.94-6.2,2.81-7.99,1.86-1.78,4.39-2.68,7.59-2.68.6,0,1.22.04,1.85.12.63.07,1.19.19,1.68.34v5.59c-.34-.07-.7-.14-1.08-.2s-.74-.08-1.08-.08c-1.6,0-2.9.38-3.88,1.14Z"/><path class="cls-2" d="M63.51,13.24l-11.97,28.62-.65,1.57c-.15.36-.31.72-.48,1.06-.4.85-.84,1.63-1.31,2.36-.67,1.03-1.44,1.91-2.31,2.63-.88.72-1.9,1.28-3.06,1.68-1.16.4-2.52.6-4.08.6-1.14,0-2.07-.11-2.79-.34-.73-.23-1.3-.44-1.72-.63l.06-5.01c.22-.03.43-.06.65-.07.31.09.67.17,1.09.23.74.11,1.48.17,2.2.17,1.57,0,2.78-.34,3.63-1.04.05-.04.11-.08.16-.13.69-.62,1.27-1.47,1.74-2.54.13-.27.24-.55.35-.85l.45-1.26-11.3-27.05h7.08l7.59,20.05,7.59-20.05h7.08Z"/><path class="cls-2" d="M35.84,45.71c-.22.01-.43.04-.65.07v-.3c.18.08.4.16.65.23Z"/><path class="cls-2" d="M40.7,7.74c-.7-.68-1.06-1.56-1.06-2.62s.35-1.94,1.06-2.62c.7-.68,1.59-1.03,2.65-1.03s1.94.34,2.62,1.03,1.03,1.56,1.03,2.62-.34,1.94-1.03,2.62c-.68.69-1.56,1.03-2.62,1.03s-1.95-.34-2.65-1.03Z"/><path class="cls-2" d="M50.75,7.74c-.67-.68-1-1.56-1-2.62s.33-1.94,1-2.62c.67-.68,1.53-1.03,2.6-1.03s1.95.34,2.65,1.03c.7.69,1.06,1.56,1.06,2.62s-.35,1.94-1.06,2.62c-.7.69-1.59,1.03-2.65,1.03s-1.93-.34-2.6-1.03Z"/><path class="cls-2" d="M91.35,43.29c-.03.09-.06.17-.09.25-.67,1.75-1.61,3.25-2.83,4.48-1.22,1.24-2.71,2.18-4.48,2.83-1.77.64-3.74.97-5.9.97-1.79,0-3.46-.23-5-.69-1.54-.45-2.9-1.12-4.08-1.99-1.18-.88-2.17-1.94-2.96-3.17-.45-.7-.83-1.45-1.13-2.25-.24-.62-.44-1.27-.59-1.95h6.57c.23.64.55,1.22.97,1.72.47.57,1.06,1.06,1.77,1.45,1.33.74,2.81,1.11,4.45,1.11,2.24,0,4.08-.67,5.5-2.02.24-.23.46-.47.66-.74,2.38-.01,4.76-.01,7.14,0Z"/><path class="cls-2" d="M92.26,13.24v24.37c0,1.04-.08,2.03-.23,2.97-.15.96-.38,1.86-.68,2.71-2.38-.01-4.76-.01-7.14,0,.59-.75,1-1.65,1.23-2.69.17-.72.25-1.51.25-2.36v-1.72c-.91,1.11-2.1,2.02-3.56,2.74-1.47.73-3.3,1.09-5.51,1.09-1.9,0-3.66-.35-5.28-1.06-1.62-.7-3.02-1.67-4.22-2.91-1.2-1.23-2.13-2.71-2.8-4.42-.66-1.71-1-3.58-1-5.59s.34-3.86,1-5.54c.67-1.67,1.6-3.12,2.8-4.34,1.2-1.21,2.6-2.15,4.22-2.82s3.36-1,5.22-1c2.21,0,4.07.37,5.6,1.11,1.52.75,2.73,1.71,3.65,2.89l.74-3.43h5.71Z"/><path class="cls-7" d="M85.58,26.42c0,1.18-.19,2.27-.57,3.26s-.93,1.85-1.66,2.59c-.72.75-1.56,1.34-2.51,1.8-.95.46-2.01.69-3.19.69s-2.26-.23-3.23-.69c-.97-.46-1.8-1.05-2.48-1.8-.68-.74-1.22-1.6-1.6-2.59s-.57-2.08-.57-3.26c0-1.1.19-2.15.57-3.13.38-.99.92-1.85,1.6-2.57.68-.72,1.51-1.3,2.48-1.71.97-.42,2.05-.63,3.23-.63s2.19.21,3.16.63c.97.41,1.82.99,2.54,1.71.73.72,1.28,1.58,1.66,2.57.38.98.57,2.03.57,3.13Z"/><path class="cls-2" d="M118.34,36.64c-.95,1.18-2.17,2.13-3.65,2.85s-3.33,1.08-5.54,1.08c-1.86,0-3.6-.35-5.22-1.06-1.62-.7-3.02-1.67-4.19-2.91-1.18-1.24-2.1-2.72-2.77-4.45-.67-1.73-1-3.62-1-5.68s.33-3.87,1-5.56c.67-1.69,1.59-3.16,2.77-4.39,1.18-1.24,2.58-2.19,4.19-2.85,1.62-.67,3.36-1,5.22-1,2.21,0,4.05.35,5.54,1.06,1.48.7,2.7,1.66,3.65,2.88l.4-3.37h5.99v26.76h-5.88l-.51-3.37Z"/><path class="cls-1" d="M118.22,26.54c0,1.14-.19,2.21-.57,3.22-.38,1.01-.92,1.88-1.63,2.63-.7.74-1.55,1.33-2.54,1.77-.99.43-2.07.65-3.25.65s-2.24-.22-3.19-.65c-.96-.44-1.77-1.03-2.46-1.77-.68-.75-1.22-1.62-1.6-2.63-.38-1.01-.57-2.08-.57-3.22s.19-2.21.57-3.2.92-1.84,1.6-2.57c.69-.72,1.5-1.29,2.46-1.71.95-.42,2.01-.63,3.19-.63s2.26.21,3.25.63c.99.42,1.84.99,2.54,1.71.71.73,1.25,1.58,1.63,2.57s.57,2.06.57,3.2Z"/><path class="cls-2" d="M130.44,40.01V13.24h5.76l.57,4.79c.68-1.67,1.75-2.99,3.2-3.94,1.45-.95,3.21-1.43,5.31-1.43.38,0,.73.02,1.06.06.32.04.58.1.77.17v5.94c-.11-.04-.31-.08-.6-.11-.29-.04-.56-.06-.83-.06-1.29,0-2.47.21-3.54.63-1.07.42-1.98,1.02-2.74,1.8-.76.78-1.35,1.71-1.77,2.8-.42,1.08-.63,2.31-.63,3.68v12.44h-6.56Z"/><path class="cls-2" d="M169.64,36.58c-.95,1.18-2.18,2.14-3.68,2.88-1.5.74-3.34,1.11-5.51,1.11-1.9,0-3.65-.35-5.25-1.06-1.6-.7-2.99-1.67-4.17-2.91-1.18-1.24-2.1-2.72-2.77-4.45-.67-1.73-1-3.6-1-5.62s.33-3.93,1-5.62c.67-1.69,1.59-3.16,2.77-4.39,1.18-1.24,2.57-2.19,4.17-2.85,1.6-.67,3.35-1,5.25-1,2.21,0,4.03.37,5.48,1.11,1.45.74,2.64,1.7,3.6,2.88V.74h6.56v39.26h-6.22l-.23-3.42Z"/><path class="cls-5" d="M164.76,34.16c.97-.44,1.81-1.03,2.51-1.77.7-.74,1.26-1.62,1.65-2.62.4-1.01.6-2.08.6-3.22s-.2-2.21-.6-3.2c-.4-.99-.95-1.84-1.65-2.57-.7-.72-1.55-1.29-2.54-1.71-.99-.42-2.05-.63-3.2-.63s-2.25.21-3.22.63c-.97.42-1.8.99-2.48,1.71-.68.72-1.22,1.58-1.6,2.57-.38.99-.57,2.05-.57,3.2s.19,2.22.57,3.22c.38,1.01.91,1.88,1.6,2.62.69.74,1.51,1.33,2.48,1.77s2.04.66,3.22.66,2.25-.22,3.22-.66Z"/><path class="cls-2" d="M206.33,20.69c-.65-1.66-1.57-3.08-2.77-4.28-1.2-1.2-2.63-2.12-4.31-2.77-1.67-.65-3.54-.97-5.59-.97-2.24,0-4.22.39-5.93,1.17-1.72.78-3.15,1.82-4.31,3.11-1.16,1.29-2.05,2.78-2.66,4.45-.61,1.68-.91,3.43-.91,5.25s.29,3.52.88,5.2c.59,1.67,1.46,3.15,2.6,4.45,1.14,1.29,2.57,2.33,4.28,3.11,1.71.78,3.67,1.17,5.88,1.17,3.27,0,6.1-.81,8.47-2.43,2.38-1.62,4.03-3.85,4.94-6.7l-6.68.05c-.64,1.11-1.49,1.94-2.54,2.51-1.04.57-2.29.86-3.73.86-1.3,0-2.42-.21-3.37-.63s-1.75-1-2.4-1.74c-.65-.74-1.13-1.62-1.45-2.65-.16-.49-.28-1.01-.36-1.54h20.76c.07-.35.12-.69.14-1.03.02-.34.03-.72.03-1.14,0-1.98-.32-3.8-.97-5.45Z"/><path class="cls-3" d="M186.52,23.97c.05-.24.11-.48.18-.71.3-1.01.76-1.9,1.37-2.66.61-.76,1.38-1.36,2.31-1.79.93-.44,2.01-.66,3.22-.66.84,0,1.67.13,2.49.4.81.27,1.56.65,2.22,1.14.67.5,1.22,1.1,1.66,1.83.43.72.71,1.54.82,2.45h-14.27Z"/><path class="cls-4" d="M3.08,47.93c13.76-2.57,27.64-4.36,41.58-5.53-.47,1.07-1.05,1.92-1.74,2.54-.05.05-.11.09-.16.13-2.31.19-4.62.4-6.92.64-.22.01-.43.04-.65.07-11.08,1.11-22.11,2.66-33.07,4.7-4.05.76-1.5-2.09.96-2.55Z"/><path class="cls-6" d="M150.76,45.97c-19.69-1.52-39.55-2.56-59.41-2.68-2.38-.01-4.76-.01-7.14,0-4.13.02-8.26.08-12.38.2-.42-.5-.74-1.08-.97-1.72h-6.57c.15.68.35,1.33.59,1.95-4.83.18-9.66.44-14.48.77.17-.34.33-.7.48-1.06l.65-1.57c11.28-.78,22.59-1.18,33.91-1.26,2.19-.02,4.39-.03,6.59-.02,20.87.06,41.73,1.13,62.41,2.73,3.01.23-2.22,2.78-3.68,2.66Z"/><path class="cls-2" d="M110.46,52.16c-.61.54-1.36.81-2.27.81-.31,0-.6-.04-.86-.13s-.5-.22-.69-.38-.35-.36-.46-.59-.17-.48-.17-.76c0-1.5,1.29-2.26,3.88-2.26h.57c0-.28,0-.52-.03-.74s-.08-.4-.17-.54-.25-.26-.46-.33-.51-.11-.89-.11c-1.02,0-1.54.37-1.58,1.1h-1.15c.07-1.34,1.01-2,2.79-2,.4,0,.77.04,1.09.11s.6.2.83.38.4.43.52.75.18.72.18,1.2v4.16h-1.14v-.66ZM110.46,51.13v-1.42h-.8c-1.66,0-2.49.45-2.49,1.35,0,.16.03.31.1.43s.16.23.28.32.26.15.43.2.35.07.55.07c.19,0,.38-.02.56-.06s.37-.1.53-.18.32-.18.47-.3.27-.25.37-.4Z"/><path class="cls-2" d="M118.19,46.39l-2.43,6.43h-1.03l-2.43-6.43h1.24l1.7,5.03,1.71-5.03h1.24Z"/><path class="cls-2" d="M120.04,45.17h-1.14v-1.24h1.14v1.24ZM120.04,52.82h-1.14v-6.43h1.14v6.43Z"/><path class="cls-2" d="M125.52,52.16c-.61.54-1.36.81-2.27.81-.31,0-.6-.04-.86-.13s-.5-.22-.69-.38-.35-.36-.46-.59-.17-.48-.17-.76c0-1.5,1.29-2.26,3.88-2.26h.57c0-.28,0-.52-.03-.74s-.08-.4-.17-.54-.25-.26-.46-.33-.51-.11-.89-.11c-1.02,0-1.54.37-1.58,1.1h-1.15c.07-1.34,1.01-2,2.79-2,.4,0,.77.04,1.09.11s.6.2.83.38.4.43.52.75.18.72.18,1.2v4.16h-1.14v-.66ZM125.52,51.13v-1.42h-.8c-1.66,0-2.49.45-2.49,1.35,0,.16.03.31.1.43s.16.23.28.32.26.15.43.2.35.07.55.07c.19,0,.38-.02.56-.06s.37-.1.53-.18.32-.18.47-.3.27-.25.37-.4Z"/><path class="cls-2" d="M130.55,52.83c-.12.03-.26.05-.4.07s-.28.02-.43.02c-.34,0-.61-.04-.81-.13s-.35-.21-.46-.37-.17-.37-.21-.62-.05-.54-.05-.86v-3.66h-.79v-.89h.79v-1.61h1.15v1.61h1.05v.89h-1.05v3.71c0,.22.01.4.04.54s.07.24.12.31.12.12.2.14.17.04.26.04.2,0,.3-.01.19-.02.28-.04v.86Z"/><path class="cls-2" d="M132.34,45.17h-1.14v-1.24h1.14v1.24ZM132.34,52.82h-1.14v-6.43h1.14v6.43Z"/><path class="cls-2" d="M136.34,46.22c.46,0,.88.08,1.25.23s.69.37.96.66.47.64.61,1.06.21.89.21,1.42-.07,1.01-.22,1.43-.35.77-.61,1.06-.58.51-.95.66-.79.23-1.24.23-.86-.07-1.23-.22-.69-.37-.96-.65-.47-.64-.62-1.06-.22-.9-.22-1.44.07-1.01.22-1.42.35-.77.61-1.06.58-.51.95-.66.79-.23,1.24-.23ZM136.34,52.07c.27,0,.52-.05.74-.16s.42-.26.58-.46.29-.46.38-.77.13-.67.13-1.08-.04-.77-.13-1.08-.22-.57-.38-.77-.36-.36-.58-.47-.47-.16-.74-.16-.52.05-.75.16-.42.26-.58.47-.29.46-.38.77-.13.67-.13,1.08.04.77.13,1.08.22.57.38.77.36.36.58.46.47.16.75.16Z"/><path class="cls-2" d="M141.49,47.2c.29-.33.59-.58.91-.74s.66-.24,1.01-.24c1.46,0,2.19.79,2.19,2.38v4.21h-1.15v-4.16c0-.27-.02-.49-.07-.68s-.12-.34-.21-.46-.22-.21-.37-.26-.33-.08-.54-.08c-.58,0-1.17.34-1.76,1.03v4.62h-1.14v-6.43h1.14v.81Z"/><path class="cls-2" d="M155.27,52.97c-.45,0-.86-.07-1.23-.22s-.69-.37-.96-.65-.47-.64-.62-1.06-.22-.9-.22-1.44.07-1.01.22-1.42.35-.77.61-1.06.58-.51.95-.66.79-.23,1.24-.23c.34,0,.66.04.96.13s.56.22.79.4.41.4.56.66.24.56.29.9h-1.18c0-.2-.05-.37-.13-.52s-.18-.27-.3-.37-.27-.17-.44-.23-.35-.08-.54-.08c-.27,0-.52.05-.75.16s-.42.26-.58.47-.29.46-.38.77-.13.67-.13,1.08.04.77.13,1.08.22.57.38.77.36.36.58.46.47.16.75.16c.18,0,.35-.02.52-.07s.32-.12.45-.22.23-.22.31-.37.12-.32.13-.51h1.18c-.05.34-.14.64-.29.9s-.33.47-.56.65-.49.3-.79.39-.62.13-.96.13Z"/><path class="cls-2" d="M161.19,46.22c.46,0,.88.08,1.25.23s.69.37.96.66.47.64.61,1.06.21.89.21,1.42-.07,1.01-.22,1.43-.35.77-.61,1.06-.58.51-.95.66-.79.23-1.24.23-.86-.07-1.23-.22-.69-.37-.96-.65-.47-.64-.62-1.06-.22-.9-.22-1.44.07-1.01.22-1.42.35-.77.61-1.06.58-.51.95-.66.79-.23,1.24-.23ZM161.19,52.07c.27,0,.52-.05.74-.16s.42-.26.58-.46.29-.46.38-.77.13-.67.13-1.08-.04-.77-.13-1.08-.22-.57-.38-.77-.36-.36-.58-.47-.47-.16-.74-.16-.52.05-.75.16-.42.26-.58.47-.29.46-.38.77-.13.67-.13,1.08.04.77.13,1.08.22.57.38.77.36.36.58.46.47.16.75.16Z"/><path class="cls-2" d="M166.33,47.2c.29-.33.59-.58.91-.74s.66-.24,1.01-.24c1.46,0,2.19.79,2.19,2.38v4.21h-1.15v-4.16c0-.27-.02-.49-.07-.68s-.12-.34-.21-.46-.22-.21-.37-.26-.33-.08-.54-.08c-.58,0-1.17.34-1.76,1.03v4.62h-1.14v-6.43h1.14v.81Z"/><path class="cls-2" d="M174.1,52.97c-1.75,0-2.67-.69-2.77-2.07h1.15c0,.78.54,1.17,1.61,1.17.24,0,.45-.03.63-.08s.33-.12.45-.21.22-.2.28-.32.09-.26.09-.41-.02-.28-.07-.37-.14-.18-.28-.25-.32-.14-.57-.21-.56-.16-.95-.26c-.38-.09-.71-.19-.99-.28s-.5-.21-.68-.34-.31-.3-.4-.5-.13-.45-.13-.75c0-.27.06-.51.17-.74s.27-.42.48-.59.46-.3.76-.39.63-.14.99-.14c1.7,0,2.56.6,2.58,1.8h-1.13c-.04-.6-.5-.9-1.37-.9-.2,0-.38.02-.54.06s-.31.09-.42.16-.21.16-.28.27-.1.23-.1.37c0,.12.02.23.05.31s.11.16.23.22.29.13.53.21.55.15.96.25c.39.1.73.2,1.02.3s.53.22.72.37.33.32.42.52.14.46.14.77c0,.29-.06.56-.18.81s-.29.47-.52.65-.5.32-.81.43-.67.16-1.07.16Z"/><path class="cls-2" d="M181.81,52.01c-.57.64-1.22.97-1.93.97-1.46,0-2.19-.79-2.19-2.38v-4.21h1.16v4.15c0,.27.02.5.07.69s.12.34.21.46.22.2.37.26.33.08.54.08c.64,0,1.23-.34,1.76-1.03v-4.6h1.14v6.43h-1.14v-.81Z"/><path class="cls-2" d="M185.48,52.82h-1.14v-8.89h1.14v8.89Z"/><path class="cls-2" d="M189.37,52.83c-.12.03-.26.05-.4.07s-.28.02-.43.02c-.34,0-.61-.04-.81-.13s-.35-.21-.46-.37-.17-.37-.21-.62-.05-.54-.05-.86v-3.66h-.79v-.89h.79v-1.61h1.15v1.61h1.05v.89h-1.05v3.71c0,.22.01.4.04.54s.07.24.12.31.12.12.2.14.17.04.26.04.2,0,.3-.01.19-.02.28-.04v.86Z"/><path class="cls-2" d="M191.16,45.17h-1.14v-1.24h1.14v1.24ZM191.16,52.82h-1.14v-6.43h1.14v6.43Z"/><path class="cls-2" d="M193.69,47.2c.29-.33.59-.58.91-.74s.66-.24,1.01-.24c1.46,0,2.19.79,2.19,2.38v4.21h-1.15v-4.16c0-.27-.02-.49-.07-.68s-.12-.34-.21-.46-.22-.21-.37-.26-.33-.08-.54-.08c-.58,0-1.17.34-1.76,1.03v4.62h-1.14v-6.43h1.14v.81Z"/><path class="cls-2" d="M204.39,52.32c0,2.07-.93,3.11-2.8,3.11-.41,0-.77-.04-1.09-.13s-.6-.22-.83-.39-.4-.37-.52-.62-.18-.52-.18-.82h1.19c0,.71.47,1.06,1.4,1.06.27,0,.52-.03.73-.1s.39-.18.53-.35.25-.39.33-.67.11-.63.11-1.06v-.31c-.52.61-1.13.91-1.84.91-.43,0-.82-.08-1.15-.24s-.61-.38-.83-.67-.39-.64-.51-1.05-.17-.86-.17-1.36c0-.53.07-1.01.21-1.43s.33-.78.57-1.08.53-.52.86-.68.69-.24,1.07-.24c.36,0,.68.05.97.16s.56.27.81.49v-.49h1.14v5.94ZM203.25,50.96v-3.05c-.52-.52-1.08-.79-1.71-.79-.25,0-.47.05-.67.16s-.37.26-.51.47-.25.47-.33.79-.11.69-.11,1.11c0,.8.14,1.4.41,1.81s.66.61,1.15.61c.32,0,.62-.09.91-.27s.57-.46.84-.84Z"/></svg>